<svg id="caldera-globe-logo" xmlns="http://www.w3.org/2000/svg" viewBox="0 0 499.23742 490.27332"><defs><style>.cls-1{fill:#fff;}.cls-2{fill:#404041;}.cls-3{fill:#00a69c;}.cls-4{fill:#0e4c45;}.cls-5{fill:#a2bd61;}.cls-6{fill:#f1f1f2;}.cls-7{fill:#7e923c;}.cls-8{fill:#e6e7e8;}</style></defs><title>globe-no-text</title><path class="cls-1" d="M249.358,492.63977a243.38828,243.38828,0,0,1-172.103-415.49,243.389,243.389,0,1,1,344.206,344.202,241.796,241.796,0,0,1-172.103,71.288" transform="translate(-0.38129 -4.86334)"/><path class="cls-2" d="M249.358,6.86334a242.45213,242.45213,0,0,1,94.348,465.729A242.45156,242.45156,0,0,1,155.01,25.9104,240.86769,240.86769,0,0,1,249.358,6.86334m0-2c-134.972,0-244.39,109.416-244.39,244.387s109.418,244.389,244.39,244.389,244.39-109.418,244.39-244.389S384.33,4.86334,249.358,4.86334" transform="translate(-0.38129 -4.86334)"/><path class="cls-2" d="M395.78875,102.7218s-14.742-18.408-17.35-26.227c-2.602-7.817-36.482,29.007-40.392,28.834-3.907-.16705,0,3.742-6.515,8.955-6.514,5.21-61.244,31.346-61.244,31.346l-21.582-13.103-14.899,13.103-87.101,28.03-6.956,1.267-8.564-12.076h.792a2.18078,2.18078,0,0,0,1.914-1.194,2.15865,2.15865,0,0,0-.159-2.235l-7.3-10.328a2.20148,2.20148,0,0,0,.973-.942,2.17069,2.17069,0,0,0-.149-2.241l-6.608-9.324a2.13477,2.13477,0,0,0-3.497,0l-6.611,9.324a2.15889,2.15889,0,0,0-.14105,2.241,2.12485,2.12485,0,0,0,.969.942l-7.296,10.314a2.18361,2.18361,0,0,0,1.746,3.443h.796l-9.531,13.44a2.17652,2.17652,0,0,0,1.751,3.418h14.636l-17.114,3.116v44.821l119.205,70.36,213.696-99.027Z" transform="translate(-0.38129 -4.86334)"/><path class="cls-3" d="M51.32586,247.65839c5.645,34.061,98.588,48.39,207.59595,31.998,109.00806-16.393,192.80707-57.294,187.16907-91.356-5.649-34.061-98.588-48.386-207.596-31.994-109.00806,16.39-192.808,57.291-187.169,91.352" transform="translate(-0.38129 -4.86334)"/><path class="cls-4" d="M104.50152,262.06946c-13.713-9.08-7.315-19.836,3.43994-28.916,10.379-8.754,11.474-6.677,24.69305-9.787,17.466-4.108,21.614-9.04706,34.461-18.47705,16.572-12.157,19.668-21.106,42.819-20.426,17.024.502,20.469,7.783,36.971,3.673q8.955-4.24649,17.908-8.488,14.99551-7.91254,28.468.426c14.798-.296,38.019-4.332,55.96-2.873,4.591,20.411,106.996,4.289,102.503,8.286-34.769,30.913-253.711,151.143-304.186,121.575a117.44182,117.44182,0,0,1-43.037-44.993" transform="translate(-0.38129 -4.86334)"/><path class="cls-5" d="M499.61871,225.01965s-39.09-128.998-49.515-131.605c-10.422-2.606-9.117-36.483-22.15-36.483-13.032,0-37.785,66.452-37.785,66.452s-10.426,52.12-20.851,46.91c-10.421-5.212-27.361,19.545-22.15,35.181s-31.272,42.998-50.81995,23.453c-19.54205-19.544-41.696,13.031-46.906,7.819-5.211-5.213-16.94,5.212-22.15,16.214-5.215,11.006-14.332-.579-19.547-.579-5.21,0-16.939,5.213-45.604-15.59595-28.668-20.804-24.757-1.341-28.668-.117-3.907,1.23-11.725-7.741-15.636-1.224-3.90594,6.514-22.15-14.334-19.542-28.669,2.543-14.001-6.098-30.494-12.576-54.329-.263-13.582-3.538-26.03094-13.138-31.097,1.692.303,3.394.432,5.054.817-6.668-24.45-24.096-46.242-38.428-66.709,2.402,29.538-14.612,47.602-23.264,74.131,4.676.159,9.947-.047,14.566.801-7.925,4.151-2.744,6.189-4.783,13.284-3.641,12.679-6.56,25.004-11.314,37.581-7.004,2.137-13.415,22.449-13.923,31.677a74.81541,74.81541,0,0,0,4.568,29.657,41.2405,41.2405,0,0,0-.741,8.161c0,134.969,109.423,244.387,244.39,244.387,126.767,0,230.983-96.52,243.187-220.075,6.732-29.201,7.726-50.04205,7.726-50.04205" transform="translate(-0.38129 -4.86334)"/><path class="cls-6" d="M185.03576,191.77844c-13.26605,3.692-34.722-4.13495-43.848,8.307,6.021,10.052,59.754,3.00305,71.995,2.772-12.875-.421-22.433,4.058-34.591,6.424-17.117,3.329-36.799,3.976-54.516,3.427-11.766-13.587,22.401-20.195,30.178-22.304,14.867-4.032,87.761-30.801,93.986-18.095-19.495,9.14105-36.877,11.422-58.356,14.826-6.254.99-8.857.33295-13.523,2.878" transform="translate(-0.38129 -4.86334)"/><path class="cls-7" d="M416.55041,88.59c.503,26.015,3.54395,53.999,15.324,51.269,5.192-1.205,12.358.565,14.714,5.987,8.162,18.761,7.171,37.243,3.055,56.949-1.081,5.159-5.285,7.864-9.886,9.033.861,14.647,3.865,28.252-3.595,42.721-2.044,3.977-6.868,6.517-11.249,6.456-1.229-.016-2.43-.064-3.623-.13-4.06,22.185-9.521,42.621-30.531,56.119-32.984,21.2-77.392,37.773-116.988,36.606-20.842-.613-42.535-4.603-59.99194-16.644-5.55505-3.832-16.301-14.392-23.603-13.559-7.776.889-14.458,5.7-22.392,6.388-31.197,2.705-38.782-27.044-55.321-45.836-8.535,2.953-18.509-1.276-18.514-11.65-.004-20.721,2.012-49.017-8.637-68.605-4.451,1.713-8.996,3.184-13.451,5.149-4.969,2.188-11.893,2.822-15.79-2.034-10.826-13.499-15.766-28.906-19.608-45.11505a227.56879,227.56879,0,0,0-15.21695,82.057c0,125.981,102.12595,228.11,228.112,228.11,125.984,0,228.11-102.129,228.11-228.11a227.27975,227.27975,0,0,0-60.918-155.161" transform="translate(-0.38129 -4.86334)"/><path class="cls-8" d="M191.95965,41.23157s-85.372,19.924-100.762,60.575c-8.39,22.157,39.956-20.615,100.762-60.575" transform="translate(-0.38129 -4.86334)"/></svg>