<?xml version="1.0" encoding="utf-8"?>
<!-- Generated by IcoMoon.io -->
<!DOCTYPE svg PUBLIC "-//W3C//DTD SVG 1.1//EN" "http://www.w3.org/Graphics/SVG/1.1/DTD/svg11.dtd">
<svg version="1.1" xmlns="http://www.w3.org/2000/svg" xmlns:xlink="http://www.w3.org/1999/xlink" width="36" height="28" viewBox="0 0 36 28">
<path d="M4.891 12.141c0 0.5-0.203 0.984-0.562 1.313-0.313 0.281-0.734 0.406-1.391 0.406h-0.266v-3.437h0.266c0.656 0 1.062 0.109 1.391 0.422 0.359 0.313 0.562 0.797 0.562 1.297zM32.641 11.125c0 0.531-0.344 0.812-1 0.812h-0.297v-1.578h0.313c0.641 0 0.984 0.266 0.984 0.766zM5.938 12.141c0-1.531-1.141-2.609-2.797-2.609h-1.484v5.203h1.484c0.781 0 1.359-0.172 1.859-0.594 0.594-0.5 0.938-1.234 0.938-2zM6.406 14.734h1.016v-5.203h-1.016v5.203zM11.406 13.156c0-0.828-0.344-1.203-1.5-1.625-0.609-0.219-0.781-0.375-0.781-0.656 0-0.328 0.313-0.578 0.75-0.578 0.313 0 0.562 0.125 0.828 0.422l0.531-0.688c-0.438-0.391-0.969-0.578-1.531-0.578-0.922 0-1.625 0.641-1.625 1.484 0 0.719 0.328 1.094 1.281 1.437 0.391 0.141 0.594 0.219 0.703 0.297 0.203 0.125 0.297 0.313 0.297 0.531 0 0.422-0.328 0.734-0.781 0.734-0.484 0-0.875-0.234-1.109-0.688l-0.656 0.625c0.469 0.688 1.031 1 1.797 1 1.062 0 1.797-0.703 1.797-1.719zM15.75 14.562v-1.203c-0.406 0.406-0.766 0.578-1.219 0.578-1.031 0-1.75-0.75-1.75-1.797 0-1 0.75-1.797 1.703-1.797 0.484 0 0.844 0.172 1.266 0.594v-1.203c-0.438-0.219-0.812-0.313-1.25-0.313-1.531 0-2.766 1.203-2.766 2.719 0 1.531 1.203 2.719 2.75 2.719 0.438 0 0.812-0.078 1.266-0.297zM35 24v-8.234c-2.5 1.563-11.297 6.563-25.516 9.234h24.516c0.547 0 1-0.453 1-1zM21.703 12.172c0-1.563-1.266-2.828-2.828-2.828s-2.828 1.266-2.828 2.828 1.266 2.828 2.828 2.828 2.828-1.266 2.828-2.828zM24.078 14.875l2.25-5.344h-1.109l-1.406 3.5-1.391-3.5h-1.109l2.219 5.344h0.547zM26.781 14.734h2.875v-0.875h-1.859v-1.406h1.797v-0.875h-1.797v-1.156h1.859v-0.891h-2.875v5.203zM32.891 14.734h1.25l-1.641-2.188c0.766-0.156 1.188-0.672 1.188-1.469 0-0.984-0.672-1.547-1.844-1.547h-1.516v5.203h1.016v-2.078h0.141zM36 4.094v19.812c0 1.156-0.922 2.094-2.063 2.094h-31.875c-1.141 0-2.063-0.938-2.063-2.094v-19.812c0-1.156 0.922-2.094 2.063-2.094h31.875c1.141 0 2.063 0.938 2.063 2.094z"></path>
</svg>
