<?xml version="1.0" encoding="utf-8"?>
<!-- Generated by IcoMoon.io -->
<!DOCTYPE svg PUBLIC "-//W3C//DTD SVG 1.1//EN" "http://www.w3.org/Graphics/SVG/1.1/DTD/svg11.dtd">
<svg version="1.1" xmlns="http://www.w3.org/2000/svg" xmlns:xlink="http://www.w3.org/1999/xlink" width="36" height="28" viewBox="0 0 36 28">
<path d="M17.484 5.328c-1.297-0.859-2.828-1.328-4.391-1.328-4.391 0-7.953 3.563-7.953 7.938 0 4.391 3.563 7.953 7.953 7.953 1.563 0 3.094-0.469 4.391-1.328-4.188-3.406-4.156-9.828 0-13.234zM18 5.703c-4.031 3.172-4.047 9.328 0 12.484 4.047-3.156 4.031-9.312 0-12.484zM18.516 5.328c4.141 3.406 4.203 9.844 0 13.234 1.297 0.859 2.844 1.328 4.391 1.328 4.391 0 7.953-3.563 7.953-7.953 0-4.375-3.563-7.938-7.953-7.938-1.563 0-3.094 0.469-4.391 1.328zM30.094 16.609h0.109v-0.047h-0.266v0.047h0.109v0.266h0.047v-0.266zM30.547 16.875h0.063v-0.313h-0.078l-0.094 0.203-0.094-0.203h-0.078v0.313h0.047v-0.234l0.094 0.203h0.063l0.078-0.203v0.234zM30.422 23.75v0.031h-0.078v-0.047h0.078v0.016zM30.422 23.891h0.047l-0.063-0.078c0.031 0 0.031-0.016 0.047-0.016 0.016-0.016 0.016-0.031 0.016-0.047s0-0.031-0.016-0.047c-0.016 0-0.031-0.016-0.063-0.016h-0.094v0.203h0.047v-0.078h0.016zM10.703 22.828c0-0.375 0.234-0.672 0.641-0.672 0.375 0 0.625 0.297 0.625 0.672 0 0.391-0.25 0.672-0.625 0.672-0.406 0-0.641-0.297-0.641-0.672zM18.094 22.141c0.297 0 0.5 0.172 0.547 0.5h-1.094c0.047-0.297 0.234-0.5 0.547-0.5zM23.656 22.828c0-0.375 0.234-0.672 0.625-0.672s0.641 0.297 0.641 0.672c0 0.391-0.25 0.672-0.641 0.672s-0.625-0.297-0.625-0.672zM27.906 22.828c0-0.375 0.25-0.672 0.641-0.672 0.375 0 0.641 0.297 0.641 0.672 0 0.391-0.266 0.672-0.641 0.672-0.391 0-0.641-0.297-0.641-0.672zM30.375 23.953c-0.016 0-0.031 0-0.063-0.016-0.016 0-0.031-0.016-0.047-0.031s-0.031-0.031-0.031-0.047-0.016-0.047-0.016-0.063 0-0.047 0.016-0.063c0-0.031 0.016-0.047 0.031-0.063s0.031-0.016 0.047-0.031 0.047-0.016 0.063-0.016 0.047 0 0.063 0.016 0.047 0.016 0.063 0.031 0.016 0.031 0.031 0.063c0 0.016 0.016 0.031 0.016 0.063 0 0.016-0.016 0.031-0.016 0.063-0.016 0.016-0.016 0.031-0.031 0.047s-0.031 0.031-0.063 0.031c-0.016 0.016-0.031 0.016-0.063 0.016zM9.359 23.891h0.469v-1.328c0-0.5-0.328-0.828-0.844-0.844-0.266 0-0.547 0.078-0.734 0.375-0.141-0.234-0.375-0.375-0.703-0.375-0.219 0-0.438 0.078-0.609 0.313v-0.25h-0.469v2.109h0.469v-1.172c0-0.375 0.203-0.562 0.516-0.562s0.469 0.203 0.469 0.562v1.172h0.453v-1.172c0-0.375 0.219-0.562 0.516-0.562 0.313 0 0.469 0.203 0.469 0.562v1.172zM11.953 23.891h0.453v-2.109h-0.453v0.25c-0.156-0.187-0.375-0.313-0.672-0.313-0.594 0-1.047 0.469-1.047 1.109s0.453 1.109 1.047 1.109c0.297 0 0.516-0.109 0.672-0.313v0.266zM14.734 23.25c0-0.375-0.281-0.562-0.734-0.625l-0.219-0.031c-0.203-0.031-0.359-0.078-0.359-0.219s0.141-0.234 0.391-0.234c0.281 0 0.531 0.094 0.672 0.172l0.187-0.375c-0.219-0.141-0.516-0.219-0.859-0.219-0.531 0-0.875 0.266-0.875 0.688 0 0.344 0.25 0.547 0.734 0.609l0.203 0.031c0.266 0.047 0.375 0.109 0.375 0.219 0 0.172-0.172 0.266-0.484 0.266s-0.547-0.109-0.703-0.219l-0.203 0.359c0.25 0.172 0.562 0.266 0.906 0.266 0.609 0 0.969-0.281 0.969-0.688zM16.766 23.781l-0.125-0.391c-0.141 0.078-0.281 0.109-0.406 0.109-0.234 0-0.297-0.141-0.297-0.344v-0.953h0.75v-0.422h-0.75v-0.641h-0.469v0.641h-0.438v0.422h0.438v0.953c0 0.484 0.187 0.781 0.734 0.781 0.187 0 0.422-0.063 0.562-0.156zM18.109 21.719c-0.609 0-1.047 0.453-1.047 1.109 0 0.672 0.453 1.109 1.078 1.109 0.313 0 0.609-0.078 0.859-0.297l-0.219-0.344c-0.172 0.141-0.406 0.234-0.609 0.234-0.297 0-0.562-0.141-0.641-0.516h1.578v-0.187c0-0.656-0.406-1.109-1-1.109zM20.594 21.719c-0.266 0-0.438 0.125-0.547 0.313v-0.25h-0.469v2.109h0.469v-1.188c0-0.344 0.141-0.547 0.453-0.547 0.094 0 0.187 0.016 0.281 0.063l0.141-0.438c-0.109-0.047-0.234-0.063-0.328-0.063zM21.063 22.828c0 0.641 0.438 1.109 1.125 1.109 0.313 0 0.531-0.063 0.75-0.25l-0.219-0.375c-0.172 0.125-0.344 0.203-0.547 0.187-0.375 0-0.641-0.266-0.641-0.672s0.266-0.672 0.641-0.672c0.203 0 0.375 0.063 0.547 0.187l0.219-0.375c-0.219-0.172-0.438-0.25-0.75-0.25-0.688 0-1.125 0.469-1.125 1.109zM24.891 23.891h0.469v-2.109h-0.469v0.25c-0.141-0.187-0.359-0.313-0.656-0.313-0.594 0-1.062 0.469-1.062 1.109s0.469 1.109 1.062 1.109c0.297 0 0.516-0.109 0.656-0.313v0.266zM26.969 21.719c-0.266 0-0.438 0.125-0.547 0.313v-0.25h-0.453v2.109h0.453v-1.188c0-0.344 0.156-0.547 0.453-0.547 0.094 0 0.187 0.016 0.281 0.063l0.141-0.438c-0.094-0.047-0.234-0.063-0.328-0.063zM29.156 23.891h0.453v-2.969h-0.453v1.109c-0.141-0.187-0.359-0.313-0.672-0.313-0.578 0-1.047 0.469-1.047 1.109s0.469 1.109 1.047 1.109c0.313 0 0.531-0.109 0.672-0.313v0.266zM30.375 23.578c-0.016 0-0.047 0.016-0.078 0.016-0.031 0.016-0.047 0.031-0.063 0.047-0.031 0.016-0.047 0.047-0.047 0.063-0.016 0.031-0.016 0.063-0.016 0.094 0 0.016 0 0.047 0.016 0.078 0 0.016 0.016 0.047 0.047 0.063 0.016 0.016 0.031 0.031 0.063 0.047s0.063 0.016 0.078 0.016c0.031 0 0.063 0 0.094-0.016 0.016-0.016 0.047-0.031 0.063-0.047s0.031-0.047 0.047-0.063c0.016-0.031 0.016-0.063 0.016-0.078 0-0.031 0-0.063-0.016-0.094-0.016-0.016-0.031-0.047-0.047-0.063s-0.047-0.031-0.063-0.047c-0.031 0-0.063-0.016-0.094-0.016zM36 4v20c0 1.094-0.906 2-2 2h-32c-1.094 0-2-0.906-2-2v-20c0-1.094 0.906-2 2-2h32c1.094 0 2 0.906 2 2z"></path>
</svg>
