<?xml version="1.0" encoding="utf-8"?>
<!-- Generated by IcoMoon.io -->
<!DOCTYPE svg PUBLIC "-//W3C//DTD SVG 1.1//EN" "http://www.w3.org/Graphics/SVG/1.1/DTD/svg11.dtd">
<svg version="1.1" xmlns="http://www.w3.org/2000/svg" xmlns:xlink="http://www.w3.org/1999/xlink" width="22" height="28" viewBox="0 0 22 28">
<path d="M9.641 26.391c0-0.375-0.828-3.031-1-3.656-0.094-0.391-0.125-1.031-0.422-1.313-0.203-0.187-0.531-0.219-0.797-0.219-0.734 0-1.469 0.172-2.203 0.172-0.219 0-0.547-0.016-0.734-0.172-0.25-0.203-0.375-0.906-0.469-1.219-0.375-1.297-0.578-2.625-0.578-3.984s0.203-2.688 0.578-3.984c0.094-0.313 0.219-1.016 0.469-1.219 0.187-0.156 0.516-0.172 0.734-0.172 0.734 0 1.469 0.172 2.203 0.172 0.266 0 0.594-0.031 0.797-0.219 0.297-0.281 0.328-0.922 0.422-1.313 0.172-0.625 1-3.281 1-3.656 0-0.531-1.406-1.313-1.859-1.484-0.234-0.094-0.469-0.125-0.703-0.125-0.516 0-1.031 0.141-1.531 0.281-2.562 0.766-3.172 2.328-4.188 4.531-1.094 2.359-1.359 4.609-1.359 7.187s0.266 4.828 1.359 7.187c1.016 2.203 1.625 3.766 4.188 4.531 0.5 0.141 1.016 0.281 1.531 0.281 0.234 0 0.469-0.031 0.703-0.125 0.453-0.172 1.859-0.953 1.859-1.484zM12.125 12.125c-0.266 0-0.516-0.109-0.703-0.297-0.391-0.391-0.406-1.031 0-1.422 0.375-0.375 0.578-0.875 0.578-1.406s-0.203-1.031-0.578-1.422c-0.406-0.391-0.391-1.016 0-1.406s1.016-0.391 1.406 0c0.75 0.75 1.172 1.766 1.172 2.828s-0.422 2.078-1.172 2.828c-0.203 0.187-0.453 0.297-0.703 0.297zM14.953 14.953c-0.266 0-0.516-0.094-0.703-0.297-0.391-0.391-0.391-1.016 0-1.406 1.125-1.141 1.75-2.641 1.75-4.25s-0.625-3.109-1.75-4.25c-0.391-0.391-0.391-1.016 0-1.406s1.016-0.391 1.406 0c1.516 1.516 2.344 3.516 2.344 5.656s-0.828 4.141-2.344 5.656c-0.187 0.203-0.453 0.297-0.703 0.297zM17.781 17.781c-0.266 0-0.516-0.094-0.703-0.297-0.391-0.391-0.391-1.016 0-1.406 1.875-1.891 2.922-4.406 2.922-7.078s-1.047-5.187-2.922-7.078c-0.391-0.391-0.391-1.016 0-1.406s1.016-0.391 1.406 0c2.266 2.266 3.516 5.281 3.516 8.484s-1.25 6.219-3.516 8.484c-0.187 0.203-0.453 0.297-0.703 0.297z"></path>
</svg>
