<?xml version="1.0" encoding="utf-8"?>
<!-- Generated by IcoMoon.io -->
<!DOCTYPE svg PUBLIC "-//W3C//DTD SVG 1.1//EN" "http://www.w3.org/Graphics/SVG/1.1/DTD/svg11.dtd">
<svg version="1.1" xmlns="http://www.w3.org/2000/svg" xmlns:xlink="http://www.w3.org/1999/xlink" width="28" height="28" viewBox="0 0 28 28">
<path d="M28 21v2c0 0.547-0.453 1-1 1h-26c-0.547 0-1-0.453-1-1v-2c0-0.547 0.453-1 1-1h26c0.547 0 1 0.453 1 1zM28 15v2c0 0.547-0.453 1-1 1h-26c-0.547 0-1-0.453-1-1v-2c0-0.547 0.453-1 1-1h26c0.547 0 1 0.453 1 1zM28 9v2c0 0.547-0.453 1-1 1h-26c-0.547 0-1-0.453-1-1v-2c0-0.547 0.453-1 1-1h26c0.547 0 1 0.453 1 1zM28 3v2c0 0.547-0.453 1-1 1h-26c-0.547 0-1-0.453-1-1v-2c0-0.547 0.453-1 1-1h26c0.547 0 1 0.453 1 1z"></path>
</svg>
