<?xml version="1.0" encoding="utf-8"?>
<!-- Generated by IcoMoon.io -->
<!DOCTYPE svg PUBLIC "-//W3C//DTD SVG 1.1//EN" "http://www.w3.org/Graphics/SVG/1.1/DTD/svg11.dtd">
<svg version="1.1" xmlns="http://www.w3.org/2000/svg" xmlns:xlink="http://www.w3.org/1999/xlink" width="26" height="28" viewBox="0 0 26 28">
<path d="M19 11c0-0.547-0.453-1-1-1h-2v-2c0-0.547-0.453-1-1-1s-1 0.453-1 1v2h-2c-0.547 0-1 0.453-1 1s0.453 1 1 1h2v2c0 0.547 0.453 1 1 1s1-0.453 1-1v-2h2c0.547 0 1-0.453 1-1zM10 24c0 1.109-0.891 2-2 2s-2-0.891-2-2 0.891-2 2-2 2 0.891 2 2zM24 24c0 1.109-0.891 2-2 2s-2-0.891-2-2 0.891-2 2-2 2 0.891 2 2zM26 7v8c0 0.5-0.375 0.938-0.891 1l-16.312 1.906c0.063 0.344 0.203 0.734 0.203 1.094s-0.219 0.688-0.375 1h14.375c0.547 0 1 0.453 1 1s-0.453 1-1 1h-16c-0.547 0-1-0.453-1-1 0-0.484 0.734-1.687 0.953-2.141l-2.766-12.859h-3.187c-0.547 0-1-0.453-1-1s0.453-1 1-1h4c1.062 0 1.078 1.25 1.234 2h18.766c0.547 0 1 0.453 1 1z"></path>
</svg>
