<?xml version="1.0" encoding="utf-8"?>
<!-- Generated by IcoMoon.io -->
<!DOCTYPE svg PUBLIC "-//W3C//DTD SVG 1.1//EN" "http://www.w3.org/Graphics/SVG/1.1/DTD/svg11.dtd">
<svg version="1.1" xmlns="http://www.w3.org/2000/svg" xmlns:xlink="http://www.w3.org/1999/xlink" width="36" height="28" viewBox="0 0 36 28">
<path d="M1.859 10.656h1.391l-0.703-1.687zM11.562 18.875l1.156-1.234-1.094-1.234h-2.547v0.766h2.219v0.859h-2.219v0.844h2.484zM14.031 17.656l1.547 1.719v-3.391zM18.531 16.922c0-0.375-0.281-0.516-0.625-0.516h-1.313v1.078h1.297c0.359 0 0.641-0.172 0.641-0.562zM23.047 16.859c0-0.391-0.344-0.453-0.656-0.453h-1.281v0.953h1.266c0.344 0 0.672-0.078 0.672-0.5zM18.703 9.578c0-0.391-0.344-0.453-0.656-0.453h-1.281v0.938h1.266c0.344 0 0.672-0.078 0.672-0.484zM25.875 10.656h1.391l-0.688-1.687zM10.922 8.234v4.234h-1.031v-3.313l-1.469 3.313h-0.891l-1.469-3.313v3.313h-2.063l-0.391-0.938h-2.109l-0.391 0.938h-1.094l1.813-4.234h1.5l1.719 4.016v-4.016h1.656l1.328 2.875 1.203-2.875h1.687zM19.609 16.922c0 1.703-1.859 1.422-3.016 1.422v1.422h-1.969l-1.25-1.406-1.297 1.406h-4v-4.234h4.062l1.25 1.391 1.281-1.391h3.234c0.953 0 1.703 0.328 1.703 1.391zM15.062 11.594v0.875h-3.391v-4.234h3.391v0.891h-2.375v0.766h2.312v0.859h-2.312v0.844h2.375zM36 20.328v3.578c0 1.141-0.922 2.094-2.063 2.094h-31.875c-1.141 0-2.063-0.953-2.063-2.094v-10.594h1.734l0.391-0.953h0.859l0.391 0.953h3.406v-0.719l0.297 0.719h1.766l0.313-0.734v0.734h8.453v-1.547l0.156-0.016c0.141 0 0.156 0.109 0.156 0.219v1.344h4.359v-0.359c1.016 0.531 2.406 0.359 3.469 0.359l0.391-0.953h0.875l0.391 0.953h3.547v-0.906l0.531 0.906h2.844v-5.906h-2.812v0.688l-0.391-0.688h-2.891v0.688l-0.359-0.688h-3.891c-0.578 0-1.188 0.063-1.703 0.344v-0.344h-2.688v0.344c-0.313-0.281-0.734-0.344-1.141-0.344h-9.812l-0.672 1.516-0.672-1.516h-3.094v0.688l-0.344-0.688h-2.641l-1.219 2.797v-6.109c0-1.141 0.922-2.094 2.063-2.094h31.875c1.141 0 2.063 0.953 2.063 2.094v10.594h-1.875c-0.438 0-0.906 0.078-1.266 0.344v-0.344h-2.766c-0.391 0-0.922 0.063-1.219 0.344v-0.344h-4.937v0.344c-0.375-0.266-0.922-0.344-1.359-0.344h-3.266v0.344c-0.328-0.313-1-0.344-1.422-0.344h-3.656l-0.844 0.906-0.781-0.906h-5.453v5.906h5.359l0.859-0.922 0.812 0.922h3.297v-1.391h0.328c0.469 0 0.953-0.016 1.406-0.203v1.594h2.719v-1.547h0.125c0.156 0 0.187 0.016 0.187 0.187v1.359h8.266c0.453 0 1.016-0.094 1.375-0.375v0.375h2.625c0.5 0 1.031-0.047 1.484-0.266zM24.156 16.672c0 0.469-0.25 0.938-0.719 1.125 0.562 0.203 0.672 0.578 0.672 1.125v0.844h-1.016v-0.703c0-0.719-0.234-0.844-0.906-0.844h-1.078v1.547h-1.016v-4.234h2.406c0.797 0 1.656 0.141 1.656 1.141zM19.828 9.375c0 0.484-0.266 0.953-0.719 1.141 0.578 0.203 0.672 0.562 0.672 1.125v0.828h-1.016c-0.016-0.906 0.219-1.531-0.906-1.531h-1.094v1.531h-1v-4.234l2.391 0.016c0.812 0 1.672 0.125 1.672 1.125zM28.094 18.891v0.875h-3.375v-4.234h3.375v0.875h-2.359v0.766h2.312v0.859h-2.312v0.844zM21.438 8.234v4.234h-1.031v-4.234h1.031zM32.266 18.422c0 1-0.688 1.344-1.594 1.344h-1.969v-0.906h1.969c0.25 0 0.531-0.063 0.531-0.391 0-0.906-2.609 0.344-2.609-1.672 0-0.859 0.656-1.266 1.437-1.266h2.031v0.891h-1.859c-0.266 0-0.562 0.047-0.562 0.391 0 0.922 2.625-0.422 2.625 1.609zM36 17.641v1.578c-0.297 0.438-0.875 0.547-1.375 0.547h-1.953v-0.906h1.953c0.25 0 0.516-0.078 0.516-0.391 0-0.891-2.609 0.344-2.609-1.672 0-0.859 0.672-1.266 1.453-1.266h2.016v0.891h-1.844c-0.281 0-0.562 0.047-0.562 0.391 0 0.75 1.766-0.016 2.406 0.828zM33.422 8.25v4.219h-1.437l-1.906-3.172v3.172h-2.063l-0.406-0.938h-2.094l-0.391 0.938h-1.172c-1.391 0-2.016-0.719-2.016-2.078 0-1.422 0.641-2.156 2.078-2.156h0.984v0.922c-1.062-0.016-2.031-0.25-2.031 1.203 0 0.719 0.172 1.219 0.984 1.219h0.453l1.437-3.328h1.516l1.703 4v-4h1.547l1.781 2.938v-2.938h1.031z"></path>
</svg>
