<?xml version="1.0" encoding="utf-8"?>
<!-- Generated by IcoMoon.io -->
<!DOCTYPE svg PUBLIC "-//W3C//DTD SVG 1.1//EN" "http://www.w3.org/Graphics/SVG/1.1/DTD/svg11.dtd">
<svg version="1.1" xmlns="http://www.w3.org/2000/svg" xmlns:xlink="http://www.w3.org/1999/xlink" width="36" height="28" viewBox="0 0 36 28">
<path d="M24.953 14.109c0 0.719-0.109 1.266-0.328 1.656-0.187 0.344-0.484 0.547-0.812 0.547-0.234 0-0.453-0.047-0.641-0.141v-3.5c0.406-0.422 0.766-0.469 0.891-0.469 0.594 0 0.891 0.656 0.891 1.906zM31.797 13.547h-1.719c0.063-1.047 0.344-1.531 0.875-1.531s0.812 0.5 0.844 1.531zM7.438 15.656c0-1.313-0.797-1.859-2.094-2.328v0c-0.688-0.25-1.062-0.453-1.062-0.766 0-0.266 0.219-0.406 0.594-0.406 0.719 0 1.437 0.266 1.937 0.516l0.281-1.75c-0.391-0.187-1.203-0.5-2.328-0.5-0.797 0-1.453 0.203-1.922 0.594-0.5 0.406-0.75 1-0.75 1.703 0 1.281 0.781 1.844 2.063 2.297 0.812 0.297 1.094 0.5 1.094 0.828 0 0.313-0.266 0.484-0.75 0.484-0.594 0-1.578-0.297-2.219-0.672l-0.281 1.766c0.547 0.313 1.563 0.641 2.625 0.641 0.844 0 1.531-0.203 2.016-0.578 0.531-0.422 0.797-1.031 0.797-1.828zM12.047 12.297l0.297-1.734h-1.5v-2.109l-2.016 0.328-0.281 1.781-0.719 0.125-0.266 1.609h0.969v3.422c0 0.891 0.234 1.5 0.688 1.875 0.391 0.313 0.953 0.469 1.734 0.469 0.609 0 0.969-0.109 1.234-0.172v-1.844c-0.141 0.031-0.469 0.109-0.688 0.109-0.453 0-0.656-0.25-0.656-0.781v-3.078h1.203zM16.984 12.688v-2.172c-0.156-0.031-0.297-0.047-0.438-0.047-0.656 0-1.188 0.344-1.391 0.969l-0.156-0.875h-2.047v7.359h2.344v-4.781c0.297-0.359 0.719-0.484 1.281-0.484 0.125 0 0.25 0 0.406 0.031zM17.563 17.922h2.344v-7.359h-2.344v7.359zM27.281 14.031c0-1.25-0.234-2.203-0.703-2.797-0.422-0.547-1-0.812-1.734-0.812-0.672 0-1.266 0.281-1.828 0.875l-0.125-0.734h-2.063v10.078l2.344-0.391v-2.359c0.359 0.109 0.734 0.172 1.062 0.172 0.578 0 1.437-0.156 2.094-0.875 0.641-0.688 0.953-1.75 0.953-3.156zM19.969 8.594c0-0.688-0.547-1.234-1.234-1.234s-1.234 0.547-1.234 1.234 0.547 1.25 1.234 1.25 1.234-0.562 1.234-1.25zM34 14.172c0-1.172-0.25-2.094-0.75-2.75-0.516-0.656-1.281-1-2.25-1-2 0-3.234 1.469-3.234 3.844 0 1.313 0.328 2.312 0.984 2.938 0.578 0.578 1.422 0.859 2.516 0.859 1 0 1.922-0.234 2.5-0.625l-0.25-1.609c-0.578 0.313-1.25 0.484-2 0.484-0.453 0-0.766-0.094-0.984-0.297-0.25-0.203-0.391-0.547-0.438-1.031h3.875c0.016-0.109 0.031-0.641 0.031-0.812zM36 4v20c0 1.094-0.906 2-2 2h-32c-1.094 0-2-0.906-2-2v-20c0-1.094 0.906-2 2-2h32c1.094 0 2 0.906 2 2z"></path>
</svg>
