<?xml version="1.0" encoding="utf-8"?>
<!-- Generated by IcoMoon.io -->
<!DOCTYPE svg PUBLIC "-//W3C//DTD SVG 1.1//EN" "http://www.w3.org/Graphics/SVG/1.1/DTD/svg11.dtd">
<svg version="1.1" xmlns="http://www.w3.org/2000/svg" xmlns:xlink="http://www.w3.org/1999/xlink" width="26" height="28" viewBox="0 0 26 28">
<path d="M22.75 19c0-0.406-0.156-0.781-0.438-1.062l-3.25-3.25c-0.281-0.281-0.672-0.438-1.062-0.438-0.453 0-0.812 0.172-1.125 0.5 0.516 0.516 1.125 0.953 1.125 1.75 0 0.828-0.672 1.5-1.5 1.5-0.797 0-1.234-0.609-1.75-1.125-0.328 0.313-0.516 0.672-0.516 1.141 0 0.391 0.156 0.781 0.438 1.062l3.219 3.234c0.281 0.281 0.672 0.422 1.062 0.422s0.781-0.141 1.062-0.406l2.297-2.281c0.281-0.281 0.438-0.656 0.438-1.047zM11.766 7.984c0-0.391-0.156-0.781-0.438-1.062l-3.219-3.234c-0.281-0.281-0.672-0.438-1.062-0.438s-0.781 0.156-1.062 0.422l-2.297 2.281c-0.281 0.281-0.438 0.656-0.438 1.047 0 0.406 0.156 0.781 0.438 1.062l3.25 3.25c0.281 0.281 0.672 0.422 1.062 0.422 0.453 0 0.812-0.156 1.125-0.484-0.516-0.516-1.125-0.953-1.125-1.75 0-0.828 0.672-1.5 1.5-1.5 0.797 0 1.234 0.609 1.75 1.125 0.328-0.313 0.516-0.672 0.516-1.141zM25.75 19c0 1.188-0.484 2.344-1.328 3.172l-2.297 2.281c-0.844 0.844-1.984 1.297-3.172 1.297-1.203 0-2.344-0.469-3.187-1.328l-3.219-3.234c-0.844-0.844-1.297-1.984-1.297-3.172 0-1.234 0.5-2.406 1.375-3.266l-1.375-1.375c-0.859 0.875-2.016 1.375-3.25 1.375-1.188 0-2.344-0.469-3.187-1.313l-3.25-3.25c-0.859-0.859-1.313-1.984-1.313-3.187 0-1.188 0.484-2.344 1.328-3.172l2.297-2.281c0.844-0.844 1.984-1.297 3.172-1.297 1.203 0 2.344 0.469 3.187 1.328l3.219 3.234c0.844 0.844 1.297 1.984 1.297 3.172 0 1.234-0.5 2.406-1.375 3.266l1.375 1.375c0.859-0.875 2.016-1.375 3.25-1.375 1.188 0 2.344 0.469 3.187 1.313l3.25 3.25c0.859 0.859 1.313 1.984 1.313 3.187z"></path>
</svg>
