<?xml version="1.0" encoding="utf-8"?>
<!-- Generated by IcoMoon.io -->
<!DOCTYPE svg PUBLIC "-//W3C//DTD SVG 1.1//EN" "http://www.w3.org/Graphics/SVG/1.1/DTD/svg11.dtd">
<svg version="1.1" xmlns="http://www.w3.org/2000/svg" xmlns:xlink="http://www.w3.org/1999/xlink" width="24" height="28" viewBox="0 0 24 28">
<path d="M19.5 2c2.484 0 4.5 2.016 4.5 4.5v15c0 2.484-2.016 4.5-4.5 4.5h-15c-2.484 0-4.5-2.016-4.5-4.5v-15c0-2.484 2.016-4.5 4.5-4.5h15zM20 18.5v-6.813c-0.297 0.328-0.625 0.625-1 0.859-1.469 0.969-2.984 1.875-4.438 2.875-0.734 0.516-1.641 1.078-2.562 1.078v0 0 0 0c-0.922 0-1.828-0.562-2.562-1.078-1.453-1-2.984-1.891-4.438-2.891-0.359-0.234-0.641-0.578-1-0.844v6.813c0 0.828 0.672 1.5 1.5 1.5h13c0.828 0 1.5-0.672 1.5-1.5zM20 9.547c0-0.844-0.625-1.547-1.5-1.547h-13c-0.828 0-1.5 0.672-1.5 1.5 0 0.844 0.875 1.766 1.531 2.203 1.375 0.922 2.797 1.781 4.172 2.688 0.594 0.391 1.578 1.109 2.297 1.109s1.703-0.719 2.297-1.109c1.391-0.906 2.781-1.797 4.172-2.719 0.609-0.406 1.531-1.344 1.531-2.125z"></path>
</svg>
