<?xml version="1.0" encoding="utf-8"?>
<!-- Generated by IcoMoon.io -->
<!DOCTYPE svg PUBLIC "-//W3C//DTD SVG 1.1//EN" "http://www.w3.org/Graphics/SVG/1.1/DTD/svg11.dtd">
<svg version="1.1" xmlns="http://www.w3.org/2000/svg" xmlns:xlink="http://www.w3.org/1999/xlink" width="24" height="28" viewBox="0 0 24 28">
<path d="M23.734 10.094v0c0.203 0.938 0.156 2.016-0.063 3.187-1.016 5.156-4.438 6.937-8.828 6.937h-0.688c-0.531 0-0.969 0.391-1.062 0.922l-0.063 0.297-0.859 5.406-0.031 0.234c-0.109 0.531-0.547 0.922-1.078 0.922h-3.922c-0.438 0-0.719-0.359-0.656-0.797 0.281-1.75 0.547-3.5 0.828-5.25s0.562-3.484 0.844-5.234c0.047-0.375 0.297-0.578 0.672-0.578 0.625 0 1.25-0.016 2.047 0 1.125 0.016 2.422-0.047 3.687-0.328 1.687-0.375 3.219-1.062 4.484-2.25 1.141-1.062 1.906-2.375 2.422-3.844 0.234-0.688 0.422-1.375 0.547-2.078 0.031-0.187 0.078-0.156 0.187-0.078 0.859 0.641 1.344 1.5 1.531 2.531zM21.047 5.688c0 1.281-0.297 2.5-0.719 3.687-0.812 2.359-2.344 4.047-4.719 4.922-1.266 0.453-2.594 0.641-3.938 0.656-0.938 0.016-1.875 0-2.812 0-1.016 0-1.656 0.5-1.844 1.5-0.219 1.188-1.078 6.719-1.328 8.281-0.016 0.109-0.063 0.156-0.187 0.156h-4.609c-0.469 0-0.812-0.406-0.75-0.859l3.625-22.984c0.094-0.594 0.625-1.047 1.234-1.047h9.344c0.672 0 2.219 0.297 3.266 0.703 2.219 0.859 3.437 2.609 3.437 4.984z"></path>
</svg>
