<?xml version="1.0" encoding="utf-8"?>
<!-- Generated by IcoMoon.io -->
<!DOCTYPE svg PUBLIC "-//W3C//DTD SVG 1.1//EN" "http://www.w3.org/Graphics/SVG/1.1/DTD/svg11.dtd">
<svg version="1.1" xmlns="http://www.w3.org/2000/svg" xmlns:xlink="http://www.w3.org/1999/xlink" width="22" height="28" viewBox="0 0 22 28">
<path d="M22 11.5v3c0 0.828-0.672 1.5-1.5 1.5h-6.5v6.5c0 0.828-0.672 1.5-1.5 1.5h-3c-0.828 0-1.5-0.672-1.5-1.5v-6.5h-6.5c-0.828 0-1.5-0.672-1.5-1.5v-3c0-0.828 0.672-1.5 1.5-1.5h6.5v-6.5c0-0.828 0.672-1.5 1.5-1.5h3c0.828 0 1.5 0.672 1.5 1.5v6.5h6.5c0.828 0 1.5 0.672 1.5 1.5z"></path>
</svg>
