<?xml version="1.0" encoding="utf-8"?>
<!-- Generated by IcoMoon.io -->
<!DOCTYPE svg PUBLIC "-//W3C//DTD SVG 1.1//EN" "http://www.w3.org/Graphics/SVG/1.1/DTD/svg11.dtd">
<svg version="1.1" xmlns="http://www.w3.org/2000/svg" xmlns:xlink="http://www.w3.org/1999/xlink" width="28" height="28" viewBox="0 0 28 28">
<path d="M0.297 13.656c0.156-4.469 2.438-8.594 6.578-11.312 0.016 0 0.109-0.031 0.063 0.047-0.328 0.313-6.281 7.328-0.797 12.781 2.812 2.797 5.078 0.141 5.078 0.141 2.172-2.828-0.031-7.109-0.031-7.109-0.562-1.406-2.578-2.266-2.578-2.266l1.625-1.797c1.375 0.594 2.438 2.188 2.438 2.188 0.047-1.672-1.234-3.469-1.234-3.469l2.516-2.859 2.5 2.828c-1.156 1.625-1.234 3.531-1.234 3.531 0.781-1.297 2.453-2.219 2.453-2.219l1.609 1.797c-1.547 0.5-2.562 2.25-2.562 2.25-0.891 1.609-1.531 5.047 0.031 7.187 1.828 2.516 4.953-0.156 4.953-0.156 5.797-5.187-0.594-12.703-0.594-12.703-0.344-0.313 0.047-0.156 0.047-0.156 2.828 2.063 6.469 4.766 6.563 11.562 0.109 8.219-5.641 14.078-13.687 14.078-7.859 0-13.969-6.563-13.734-14.344z"></path>
</svg>
