<?xml version="1.0" encoding="utf-8"?>
<!-- Generated by IcoMoon.io -->
<!DOCTYPE svg PUBLIC "-//W3C//DTD SVG 1.1//EN" "http://www.w3.org/Graphics/SVG/1.1/DTD/svg11.dtd">
<svg version="1.1" xmlns="http://www.w3.org/2000/svg" xmlns:xlink="http://www.w3.org/1999/xlink" width="26" height="28" viewBox="0 0 26 28">
<path d="M23.734 12.125c1.281 0 2.266 0.938 2.266 2.219 0 1-0.516 1.703-1.453 2.031l-2.688 0.922 0.875 2.609c0.078 0.234 0.109 0.484 0.109 0.734 0 1.234-1 2.266-2.234 2.266-0.984 0-1.859-0.609-2.172-1.547l-0.859-2.578-4.844 1.656 0.859 2.562c0.078 0.234 0.125 0.484 0.125 0.734 0 1.219-1 2.266-2.25 2.266-0.984 0-1.844-0.609-2.156-1.547l-0.859-2.547-2.391 0.828c-0.25 0.078-0.516 0.141-0.781 0.141-1.266 0-2.219-0.938-2.219-2.203 0-0.969 0.625-1.844 1.547-2.156l2.438-0.828-1.641-4.891-2.438 0.844c-0.25 0.078-0.5 0.125-0.75 0.125-1.25 0-2.219-0.953-2.219-2.203 0-0.969 0.625-1.844 1.547-2.156l2.453-0.828-0.828-2.484c-0.078-0.234-0.125-0.484-0.125-0.734 0-1.234 1-2.266 2.25-2.266 0.984 0 1.844 0.609 2.156 1.547l0.844 2.5 4.844-1.641-0.844-2.5c-0.078-0.234-0.125-0.484-0.125-0.734 0-1.234 1.016-2.266 2.25-2.266 0.984 0 1.859 0.625 2.172 1.547l0.828 2.516 2.531-0.859c0.219-0.063 0.438-0.094 0.672-0.094 1.219 0 2.266 0.906 2.266 2.156 0 0.969-0.75 1.781-1.625 2.078l-2.453 0.844 1.641 4.937 2.562-0.875c0.234-0.078 0.484-0.125 0.719-0.125zM11.328 16.219l4.844-1.641-1.641-4.922-4.844 1.672z"></path>
</svg>
